<svg width="24" height="24" viewBox="0 0 24 24" fill="none" xmlns="http://www.w3.org/2000/svg">
<path d="M17.34 18.54C17.1027 18.54 16.8707 18.4696 16.6733 18.3378C16.476 18.2059 16.3222 18.0185 16.2313 17.7992C16.1405 17.5799 16.1168 17.3387 16.1631 17.1059C16.2094 16.8731 16.3236 16.6593 16.4915 16.4915C16.6593 16.3236 16.8731 16.2094 17.1059 16.1631C17.3387 16.1168 17.5799 16.1405 17.7992 16.2313C18.0185 16.3222 18.2059 16.476 18.3378 16.6733C18.4696 16.8707 18.54 17.1027 18.54 17.34C18.54 17.6583 18.4136 17.9635 18.1885 18.1885C17.9635 18.4136 17.6583 18.54 17.34 18.54ZM21.94 16.12C21.9206 16.9497 21.7652 17.7706 21.48 18.55C21.2257 19.2169 20.83 19.8207 20.32 20.32C19.8248 20.8326 19.2196 21.2258 18.55 21.47C17.7727 21.7638 16.9508 21.9228 16.12 21.94C15.06 22 14.72 22 12 22C9.28 22 8.94 22 7.88 21.94C7.04915 21.9228 6.22734 21.7638 5.45 21.47C4.78168 21.2234 4.17693 20.8304 3.68 20.32C3.16743 19.8248 2.77418 19.2196 2.53 18.55C2.23616 17.7727 2.07721 16.9508 2.06 16.12C2 15.06 2 14.72 2 12C2 9.28 2 8.94 2.06 7.88C2.07721 7.04915 2.23616 6.22734 2.53 5.45C2.77418 4.78044 3.16743 4.17518 3.68 3.68C4.17693 3.16956 4.78168 2.77665 5.45 2.53C6.22734 2.23616 7.04915 2.07721 7.88 2.06C8.94 2 9.28 2 12 2C14.72 2 15.06 2 16.12 2.06C16.9508 2.07721 17.7727 2.23616 18.55 2.53C19.2196 2.77418 19.8248 3.16743 20.32 3.68C20.8322 4.17742 21.2283 4.78181 21.48 5.45C21.7652 6.2294 21.9206 7.0503 21.94 7.88C21.94 8.94 22 9.28 22 12C22 14.72 22 15.06 21.94 16.12ZM20.14 8C20.1327 7.36523 20.0178 6.7363 19.8 6.14C19.6403 5.70481 19.3839 5.31158 19.05 4.99C18.7256 4.65949 18.3332 4.40357 17.9 4.24C17.3037 4.02225 16.6748 3.90728 16.04 3.9C15.04 3.85 14.67 3.84 12.04 3.84C9.41 3.84 9.04 3.84 8.04 3.9C7.38089 3.88766 6.72459 3.98915 6.1 4.2C5.68578 4.37192 5.31136 4.62721 5 4.95C4.66809 5.27125 4.41484 5.66481 4.26 6.1C4.01586 6.70485 3.88044 7.34806 3.86 8C3.86 9 3.8 9.37 3.8 12C3.8 14.63 3.8 15 3.86 16C3.86448 16.6489 3.98295 17.2921 4.21 17.9C4.38605 18.3221 4.65627 18.6983 5 19C5.30381 19.3438 5.67929 19.6169 6.1 19.8C6.70955 20.02 7.352 20.1349 8 20.14C9 20.14 9.37 20.2 12 20.2C14.63 20.2 15 20.2 16 20.14C16.6348 20.1327 17.2637 20.0178 17.86 19.8C18.3144 19.6313 18.7223 19.3572 19.05 19C19.3777 18.6928 19.6338 18.3173 19.8 17.9C20.0223 17.2911 20.1373 16.6482 20.14 16C20.19 15 20.2 14.63 20.2 12C20.2 9.37 20.19 9 20.14 8ZM12 17.13C10.9858 17.128 9.99496 16.8255 9.15265 16.2606C8.31035 15.6957 7.65438 14.8938 7.26763 13.9562C6.88089 13.0187 6.78072 11.9875 6.97979 10.9931C7.17886 9.99861 7.66824 9.08546 8.38608 8.36902C9.10392 7.65258 10.018 7.16498 11.0129 6.96785C12.0077 6.77072 13.0387 6.87289 13.9755 7.26146C14.9123 7.65003 15.7129 8.30756 16.2761 9.15097C16.8394 9.99437 17.14 10.9858 17.14 12C17.1413 12.6749 17.0092 13.3434 16.7512 13.967C16.4933 14.5907 16.1146 15.1572 15.6369 15.6339C15.1592 16.1107 14.5919 16.4883 13.9678 16.7451C13.3436 17.0018 12.6749 17.1326 12 17.13ZM12 8.67C11.3414 8.67 10.6976 8.8653 10.15 9.23121C9.60234 9.59711 9.17552 10.1172 8.92348 10.7257C8.67144 11.3341 8.6055 12.0037 8.73398 12.6497C8.86247 13.2956 9.17963 13.889 9.64533 14.3547C10.111 14.8204 10.7044 15.1375 11.3503 15.266C11.9963 15.3945 12.6659 15.3286 13.2743 15.0765C13.8828 14.8245 14.4029 14.3977 14.7688 13.85C15.1347 13.3024 15.33 12.6586 15.33 12C15.33 11.5627 15.2439 11.1297 15.0765 10.7257C14.9092 10.3216 14.6639 9.95455 14.3547 9.64533C14.0454 9.33611 13.6784 9.09083 13.2743 8.92348C12.8703 8.75613 12.4373 8.67 12 8.67Z" fill="white"/>
</svg>
